<?xml version="1.0" encoding="UTF-8"?>
<svg xmlns="http://www.w3.org/2000/svg" version="1.1" viewBox="0 0 1024 20">
  <defs><style>.st0{fill-rule:evenodd}.st0,.st1{fill:#adadad}</style></defs>
  <path class="st1" d="M11.9,2.5c-.5-.2-1-.4-1.5-.6C5.9.8,1.4,3.5.3,7.9c-1.1,4.5,1.5,9,6,10.1,4.5,1.1,9-1.5,10.1-6,0-.4.2-.8.2-1.2,0-.2,0-.5,0-.8,0-3.2-1.8-6.1-4.7-7.5ZM12.7,9.3c0,0,0,0,0,0s0,0,0,0c0,0,0,0,0,0,0,0,0,0,0,0h0ZM11.8,7.7c0,0,0,0,.1,0,0,0,0,0,0,.1h0c0,0-.2,0-.2,0,0,0,0,0,.1-.1ZM11.5,7.2s0,0,0,0,0,0,0,.1c0,0,0,0,0-.1,0,0,0,0,0,0h0ZM10.3,6.2s0,0,0,0h0c0,0,0,0-.1.1,0,0,0,0,0-.1,0,0,0,0,0,0,0,0,0,0,0,0h0ZM5.8,9c0,0,0,0,0,0s0,0,0,0c0,0,0,0,0,0,0,0,0,0,0,0ZM4.7,10.6c0,0,.2,0,.2.2s0,0,0,0h0c0,0-.1,0-.2-.2,0,0,0,0,0,0h0ZM10,14.1c0,0,0,0,0,0s0,0,0,0c0,0,0,0,0,0,0,0,0,0,0,0ZM10.9,13.6s0,0,0,0c0,0,0-.2,0-.2s0,0,0,0,0,.1,0,.1ZM12.1,12.2c0,0,0,0,0-.1s0,0,0,0c0,0,0,0,0,0s0,0,0,.1,0,.2,0,0h0ZM12.4,11.7c0,0,0,0,0,0s0,0,0,0,0,0,0,0h0c0,0,0,0,0,0h0ZM12.8,10.3c0,.2,0,.2,0,.2,0,0,0,0,0,0,0,0-.2,0-.3.2s.2.2,0,.3-.2,0-.3,0,.1.2.2.2,0,0,0,.1,0,0-.2,0-.1,0-.1,0c0,0,0,.2,0,.3,0,0,0,0-.1,0s0,0,0,.1.2.1.2.3-.2.3-.2.2,0,0,0-.2,0-.1-.1,0c0,0,0,.2,0,.3s0,0-.1,0-.1,0-.2.1,0,.1,0,.2,0,0,0,0,.1,0,0,0,0,0,0,0c0,0,0,0,0,0h0c0,0-.1,0-.3,0s0,.2,0,.3-.2,0-.2,0,0,.1-.2.2-.4.2-.5.2,0,0-.1,0,0,0,0,.2,0,0,0,.1-.2,0-.2,0,0,0-.2,0,0,.2,0,.2,0,0-.2,0-.2,0-.3,0,0,0-.2,0-.3.2-.4,0,0-.2-.2-.1-.1.2-.3.2c-.2,0-.4,0-.6,0-.2,0,0,0,0,0s.1,0,.2,0c0,0,0,0-.2,0s0,0-.3,0-.2,0-.3-.1-.2-.3-.2,0-.1.3-.2.1,0-.2,0-.3,0,0,0,0,0,.2-.1,0,0,0,0-.2,0,0-.2-.2h-.1c-.1,0-.2,0-.3,0s-.1-.1,0,0c0,0,.2,0,.2,0s0-.1,0-.1-.2,0-.3-.2,0-.2-.2-.3c0,0,0-.1,0-.2,0,0,0-.1-.1-.2,0,0,0,0,0,0s0,0,0-.1,0-.2,0,0,0,.2,0,0c0,0,0-.2-.1-.3s0-.2,0-.2.3,0,.2,0-.2,0-.3-.1,0,0,.1-.2c0,0,0-.1,0-.2h0c0,0-.2,0-.2,0s.1,0,.2-.1.2-.2.2-.3,0-.2,0-.3-.1,0,0-.2.1-.2.1-.2c0,.2,0,.3,0,0s.2-.2.2-.4,0-.2,0-.2.2,0,.1,0,0,.2.2,0,0-.1,0-.2,0,0,0-.2c0,0,0,0,.1-.2s.4-.2.4-.3.1-.2.3-.3c0-.1.3-.2.4-.2s0,0,.3-.2,0,.1.2,0,.3,0,.4,0,.2,0,.3,0,.1-.2.4-.1,0,.4.2.4.2,0,.4,0,.3,0,.3.2c.1.2,0,.2-.2,0s-.2-.2-.3,0,.2.2.4.1.2,0,.1,0,0,0,0,.3c0,0-.2.2-.3.1t0,0c0,0,0,.1-.2,0s0-.2-.2-.2-.2,0-.3,0c-.2,0-.4,0-.6,0s-.4,0-.6,0c-.2,0-.2.1-.3.1s-.1,0-.3,0,0,0,0,.2-.1.1-.2.3,0,.2-.1.3-.2.2-.2.4c0,.2,0,.3,0,0s0-.4,0-.3,0,.2,0,.4,0,.2,0,.4c0,0,0,0,0,.3s.2.2.2.4,0,.3.2.6.3.2.4.3c.3.2.6.4.9.5.2,0,.5,0,.7,0s.1.1.3,0,0,0,.2,0c.2,0,.5,0,.7-.2.2,0,.2,0,.4,0s0,0,0,0-.1,0,0,0c.1,0,.3-.2.4-.3.2-.2.4-.4.6-.7.2-.3.3-.6.3-.9s0-.5.2-.4.1,0,0-.1c0-.1-.1,0-.2-.2,0-.2,0-.4,0-.7,0-.3-.2-.7-.3-1,0-.2-.2-.1-.4-.4s.2-.2,0-.4,0,0-.2-.1c-.3-.3-.6-.5-.9-.7-.2,0-.4-.2-.7-.3-.2-.1-.2-.2,0-.2s.2,0,0-.1-.2.1-.4,0c-.2,0-.3,0-.5-.1,0,0,0,.1-.2,0-.2,0-.4,0-.6,0,0,0,0-.1,0,0s-.3,0-.3,0-.2,0-.3,0-.3,0-.3-.2,0,0,.3,0,0,0,0-.1-.1-.2,0-.2c.1,0,.2,0,.3-.2,0,0,.3-.1.4,0q.2,0,.3,0c.1,0,.2-.2.4,0s.2,0,.3,0,.2,0,.3,0,.2,0,.3,0,.2,0,.3,0,0,0,.2,0,.1,0,.2,0c0,0,.2.2.3.3,0,.2.7.6.5.3s-.3-.3-.3-.5.2-.1.3,0,0,.2.2.2,0,0,.1.2c0,.2.2,0,.3,0,0,0,0,0,0,.1,0,.2.1,0,.2.1s0,0,0,.2,0,.3.2.3c0,0,.2,0,.3.2,0,.2.2,0,.2,0s0,.1,0,.3-.2.3,0,.3.3-.2.4,0c0,0,0,.2,0,.3,0,.1,0,.3.2.3h0s.2,0,.2.3c0,0,.2,0,.2.2s0,.1,0,.2.2.2.2.5c0,0,0,0,0,.1s0,0-.2,0,0,.3,0,.3h.1s0,0,0,0,0-.1,0-.2.1,0,.1.2h0Z"/>
  <path class="st1" d="M25.3,7.2c-.5-.8-1.5-1.3-2.4-1.3-1,0-1.9.4-2.5,1.1-.7.9-1,1.9-1,3,0,1.3.3,2.4,1,3.1s1.6,1.2,2.5,1.2c1,0,1.9-.4,2.4-1.3v1.1h2.1V6.1h-2.1v1.1h0ZM24.8,11.9c-.3.4-.8.7-1.4.7-.5,0-1-.2-1.3-.6-.3-.5-.5-1.1-.5-1.7,0-1.7.6-2.5,1.8-2.5s1,.2,1.3.7c.4.5.5,1.1.5,1.8,0,.6-.1,1.3-.5,1.8Z"/>
  <path class="st1" d="M34.5,7.2c-.5-.8-1.4-1.3-2.3-1.3-1,0-1.9.4-2.5,1.1-.6.8-.9,1.8-.9,3s.3,2.3.9,3.1c.6.8,1.5,1.2,2.5,1.2,1,0,1.9-.4,2.4-1.2h0v1h2.1V2.7h-2.2v4.5ZM34.1,11.9c-.3.4-.8.7-1.4.6-.5,0-1-.2-1.3-.7-.3-.5-.5-1.2-.5-1.8,0-.6.1-1.3.5-1.8.3-.4.8-.7,1.4-.6.5,0,1,.2,1.4.6.4.5.5,1.2.5,1.8,0,.6-.1,1.3-.5,1.8Z"/>
  <polygon class="st1" points="42 10.7 42 10.7 40.1 6.1 37.6 6.1 41.3 14.1 42.5 14.1 46.2 6.1 43.7 6.1 42 10.7"/>
  <path class="st1" d="M52.2,7.2c-.5-.8-1.5-1.3-2.4-1.3-1,0-1.9.4-2.5,1.1-.7.9-1,1.9-1,3,0,1.3.3,2.4,1,3.1s1.6,1.2,2.6,1.2c1,0,1.9-.4,2.4-1.3v1.1h2.1V6.1h-2.1v1.1ZM51.6,11.9c-.3.4-.8.7-1.4.7-.5,0-1-.2-1.3-.6-.3-.5-.5-1.1-.5-1.7,0-1.7.6-2.5,1.8-2.5s1,.2,1.4.7c.4.5.5,1.1.5,1.8,0,.6-.1,1.3-.5,1.8h0Z"/>
  <path class="st1" d="M60.6,5.9c-.6,0-1.2.1-1.7.5-.3.2-.6.6-.8.9h0v-1.2h-2.1v8h2.2v-4.6c0-.5.1-1,.5-1.4.3-.3.8-.5,1.3-.5.9,0,1.4.5,1.4,1.6v4.9h2.2v-5.5c0-.7-.2-1.4-.8-2-.6-.5-1.3-.8-2.1-.7Z"/>
  <polygon class="st1" points="67.8 2.7 65.7 2.7 65.7 6.1 64.4 6.1 64.4 7.9 65.7 7.9 65.7 14.1 67.8 14.1 67.8 7.9 69.3 7.9 69.3 6.1 67.8 6.1 67.8 2.7"/>
  <path class="st1" d="M75.7,7.2c-.5-.8-1.5-1.3-2.4-1.3-1,0-1.9.4-2.5,1.1-.7.9-1,1.9-1,3,0,1.3.3,2.4,1,3.1s1.6,1.2,2.6,1.2c1,0,1.9-.4,2.4-1.3v1.1h2.1V6.1h-2.1v1.1h0ZM75.3,11.9c-.4.4-.9.7-1.5.7-.5,0-1-.2-1.3-.6-.3-.5-.5-1.1-.5-1.7,0-1.7.6-2.5,1.8-2.5s1.1.2,1.5.7c.4.5.5,1.1.5,1.8,0,.6-.1,1.3-.5,1.8Z"/>
  <path class="st1" d="M85.1,7.3h0c-.4-.9-1.4-1.5-2.4-1.4-1,0-1.9.4-2.5,1.1-.7.9-1,1.9-.9,3,0,1.3.3,2.3.9,3,.6.7,1.6,1.2,2.6,1.1.5,0,1.1-.1,1.5-.4.3-.2.5-.5.7-.8h0v1c0,1.2-.6,1.8-1.7,1.8h-2v1.9h2c.7,0,1.4,0,2-.3.5-.2.9-.6,1.2-1,.3-.4.5-.8.5-1.3,0-.5.1-.9.1-1.4v-7.6h-2.1v1.2h0ZM84.7,11.8c-.4.4-.9.6-1.5.6-.5,0-1-.2-1.3-.6-.3-.5-.5-1.1-.5-1.7,0-.6.1-1.2.5-1.7.3-.4.8-.7,1.3-.6.6,0,1.1.2,1.5.7.4.5.5,1.1.5,1.7,0,.6-.2,1.2-.5,1.6Z"/>
  <path class="st1" d="M96.2,10.7v-.3c0-3-1.3-4.5-3.9-4.5s-2.2.4-2.9,1.1-1,1.8-1,3.1.3,2.4,1,3.2,1.7,1.1,3,1.1c1,0,2-.3,2.7-.9.4-.4.7-.9.9-1.4l-2.1-.3c-.2.6-.8,1-1.4,1-.5,0-1-.1-1.3-.5-.3-.4-.5-1-.4-1.5h5.5ZM91.1,8.1c.3-.3.7-.5,1.2-.5,1,0,1.5.6,1.7,1.7h-3.2c0-.6,0-1,.3-1.2Z"/>
  <polygon class="st0" points="131 1.7 140.2 1.7 135.6 8.3 131 1.7"/>
  <path class="st0" d="M141.6,5.5h-3.4l-2.7,3.9-2.7-3.9h-3.4l4.5,6.2-3.7,5.1-6.3-11.2h-1.4l-7,12.6h3.5l1.2-2.5h6l1.3,2.5h5.1l2.8-4.1,3.3,4.1h3.6l-5.3-6.5,4.5-6.2ZM121.3,13.3l2.1-4.1,2.1,4.1h-4.2Z"/>
  <path class="st0" d="M152.4,6.8c-1.1-1-2.6-1.6-4.3-1.6-1.7,0-3.4.7-4.6,2s-1.8,3-1.7,4.7c0,2,.5,3.5,1.6,4.7,1.1,1.1,2.6,1.7,4.6,1.7,2.1,0,3.6-.4,4.6-1.3l-1.1-2.3c-.7.7-1.7,1.1-3.1,1.1-.9,0-1.8-.2-2.5-.8-.7-.6-1.1-1.5-1.1-2.4h9c.1-.5.2-1.1.2-1.6,0-1.7-.5-3.1-1.7-4.2ZM144.9,10.4c.4-1.8,1.5-2.8,3.1-2.8s2.9.9,3.1,2.8c0,0-6.2,0-6.2,0Z"/>
  <path class="st0" d="M160.3,10.7c-.5-.2-1.1-.4-1.6-.7-.7-.4-1.1-.8-1.1-1.2,0-.8.5-1.2,1.5-1.2s2.1.3,2.7.8l.9-2.3c-1.1-.6-2.4-.9-3.7-.9-1.1,0-2.1.2-3,.8s-1.5,1.6-1.4,2.7c0,1.6,1.1,2.9,3.3,3.8.6.2,1.1.5,1.6.8.5.3.9.9.9,1.5,0,.8-.6,1.2-1.7,1.2s-2.2-.4-3-1l-1,2.3c.6.3,1.2.6,1.9.8.7.2,1.4.3,2.1.2,1.2,0,2.3-.2,3.3-.8,1-.6,1.6-1.7,1.5-2.9,0-1.7-1.1-3-3.2-3.8Z"/>
  <path class="st0" d="M169.7,10.7c-.5-.2-1.1-.4-1.6-.7-.7-.4-1.1-.8-1.1-1.2,0-.8.5-1.2,1.5-1.2s2.1.3,2.7.8l.9-2.3c-1.1-.6-2.4-.9-3.7-.9-1.1,0-2.1.2-3,.8s-1.5,1.6-1.4,2.7c0,1.6,1.1,2.9,3.3,3.8.6.2,1.1.5,1.6.8.5.3.9.9.9,1.5,0,.8-.6,1.2-1.7,1.2s-2.2-.4-3-1l-1,2.3c.6.3,1.2.6,1.9.8.7.2,1.4.2,2.1.2,1.2,0,2.3-.2,3.3-.8,1-.6,1.6-1.7,1.5-2.9,0-1.7-1.1-3-3.2-3.8Z"/>
  <path class="st1" d="M199.2,14.1c0,.6,0,1.3,0,1.9,0,.6-.3,1.1-.7,1.6-.5.5-1.2.8-2,.7-.8,0-1.5-.3-2-.9v.8h-2v-10h2v2.6c.5-.5,1.2-.8,2-.8.7,0,1.4.2,2,.7.4.4.7,1,.7,1.6,0,.6,0,1.2,0,1.8ZM197.2,14.1c0-.6,0-1.1-.2-1.7-.3-.6-1.1-.9-1.8-.5-.2.1-.4.3-.5.5-.2.5-.3,1.1-.2,1.7,0,.6,0,1.1.2,1.7.3.6,1.1.9,1.8.5.2-.1.4-.3.5-.5.2-.5.3-1.1.2-1.7ZM215.6,18.2h-2v-4.9c0-.4-.1-.8-.4-1.1-.5-.4-1.3-.4-1.8,0-.3.3-.5.7-.4,1.1v4.9h-2v-8.1h2v.7c.5-.6,1.3-.9,2-.8.7,0,1.4.2,1.9.7.6.6.9,1.5.8,2.3v5.2ZM205.5,10.1h2v8.1h-2v-1c-1,1.2-2.8,1.4-4,.4-.2-.2-.4-.3-.5-.5-.6-.9-1-1.9-.9-3,0-1.1.3-2.1.9-2.9.6-.7,1.4-1.2,2.3-1.2,1.2,0,1.9.4,2.2,1.1v-1ZM205.4,14.1c0-.6,0-1.1-.3-1.7-.2-.4-.7-.7-1.4-.7s-1.2.2-1.4.7c-.2.5-.3,1.1-.3,1.7,0,.6,0,1.1.3,1.7.2.4.7.7,1.4.7s1.1-.2,1.4-.7c.2-.5.3-1.1.3-1.7h0ZM251.9,18.2h-1.1c-.7,0-1.3-.2-1.8-.7-.4-.4-.6-1-.6-1.6v-4h-1.2l.3-1.8h.9v-1.9h2v1.9h1.4v1.8h-1.5v3.9c0,.5.2.7.7.7h.7v1.7h0ZM246.7,10c-.2,0-.4,0-.6,0-.8,0-1.5.3-2,.9v-.8h-2v8.1h2v-4.9c0-.4.1-.8.4-1.1.2-.2.6-.4.9-.4h.9c0-.6.2-1.2.3-1.8ZM238.7,10.1h2v8.1h-2v-1c-1,1.2-2.8,1.4-4,.4-.2-.2-.4-.3-.5-.5-.6-.9-1-1.9-.9-3,0-1.1.3-2.1.9-2.9.6-.7,1.4-1.2,2.3-1.2,1.2,0,1.9.4,2.2,1.1v-1ZM238.6,14.1c0-.6,0-1.1-.3-1.7-.2-.4-.7-.7-1.4-.7s-1.2.2-1.4.7c-.2.5-.3,1.1-.3,1.7,0,.6,0,1.1.3,1.7.2.4.7.7,1.4.7s1.2-.2,1.4-.7c.2-.5.3-1.1.3-1.7h0ZM224,8.2l-5.4,5.4v-3.5h-1.9v8.1l10-10h-2.7ZM233,8.2l-5.4,5.4v-3.5h-1.9v8.1l10-10h-2.7ZM229.2,15.8l1.5,2.4h2.4l-2.4-3.8-1.5,1.5ZM220.2,15.8l1.5,2.4h2.4l-2.4-3.8-1.5,1.5Z"/>
  <path class="st1" d="M201.4,6h-1.5l1.5-2.5v-.4h0s-2,0-2,0h0v.4h0,1.4l-1.5,2.5v.4h2v-.4h0Z"/>
  <path class="st1" d="M202,3.1c-.2,0-.4.2-.4.4h0c0,.2.2.4.4.4h0c.2,0,.4-.2.4-.4s-.2-.4-.4-.4h0Z"/>
  <path class="st1" d="M202.2,4h-.5v2.5h.5v-2.5h0Z"/>
  <path class="st1" d="M209.3,6.1h0c0,0-.1,0-.2,0-.2,0-.3,0-.3-.4v-1.4h.4v-.4h.1-.6v-.7h-.5v.7h-.3v.3h.3v1.6c0,.3.2.6.5.6h.1c.2,0,.3,0,.5,0h0v-.3h0Z"/>
  <path class="st1" d="M205.6,4.4c-.1-.3-.4-.5-.8-.4-.2,0-.5,0-.7.1h0v.5h0c.2-.2.5-.3.7-.3s.3.1.3.4v.2h-.2c-.8,0-1.2.3-1.2.9s.3.7.8.7.4,0,.5-.2h0c0,.1.5.1.5.1h0v-1.5c0-.2,0-.4,0-.6ZM205.1,5.9c0,.1-.2.2-.4.3-.2,0-.3-.1-.3-.4s0-.5.7-.5h0v.6Z"/>
  <path class="st1" d="M207.7,4.4c-.1-.3-.4-.5-.8-.4-.2,0-.5,0-.7.1h0v.6h0c.2-.2.5-.3.7-.3s.3.1.3.4h0c0,.1-.2.1-.2.1-.8,0-1.2.3-1.2.9s.3.7.8.7.4,0,.5-.2h0c0,.1.5.1.5.1h0v-1.5c0-.2,0-.4,0-.6ZM207.2,5.9c0,.1-.2.2-.4.3-.2,0-.3-.1-.3-.3h0c0-.3,0-.5.7-.5h0v.6Z"/>
  <path class="st1" d="M203.8,4.6h0v-.5q0,0,0,0c0,0-.1,0-.2,0-.3,0-.5.1-.6.4v-.4h-.5v2.5h.5v-1.6c0-.2.2-.3.4-.3,0,0,.1,0,.2,0h0Z"/>
  <path class="st1" d="M212.1,4.9c0,0-.2-.1-.4-.2.1,0,.2,0,.3-.2.1-.1.2-.3.2-.5s-.1-.5-.4-.7c-.3-.2-.6-.2-.9-.2h-.8v3.3h.9c.5,0,.8,0,1.1-.3.2-.2.3-.4.3-.7s-.1-.5-.3-.6ZM210.6,3.5h.5c.2,0,.3,0,.4.1.1,0,.2.3.2.4s0,.3-.2.4c-.1,0-.3.1-.4.1h-.6v-1.1ZM211.8,6c-.1,0-.3.2-.5.1h-.7v-1.2h.6c.2,0,.4,0,.6.1.2.1.2.3.2.5,0,.1,0,.3-.2.4Z"/>
  <path class="st1" d="M215.9,4c-.1,0-.3,0-.4,0-.1,0-.2.2-.3.3v-.4h-.4v2.5h.4v-1.8c0,0,.2-.2.3-.2,0,0,.2,0,.3,0s.2,0,.3,0c0,0,0,.2,0,.4v1.7h.4v-1.9c0,0,0-.2,0-.3-.1-.2-.4-.3-.6-.3Z"/>
  <path class="st1" d="M217.7,5.1l1-1.1h-.5l-1,1.1v-2h-.4v3.3h.3v-1.4l1.1,1.4h.5l-1.1-1.4Z"/>
  <path class="st1" d="M213.7,4c-.2,0-.4,0-.5,0,0,0-.1,0-.2,0h0v.4h0c0,0,.2-.1.3-.2.1,0,.3,0,.4,0s.2,0,.3.1c0,0,0,.2,0,.3v.3h0c-.3,0-.7,0-.9.2-.2.1-.3.4-.3.7,0,.4.3.7.8.7s.5,0,.6-.3v.3h.4v-1.8c0-.1,0-.2,0-.4,0-.2-.2-.4-.7-.4ZM214,5.9c0,.2-.3.4-.6.4s-.2,0-.3,0c0,0,0-.2,0-.3s0-.3.2-.4c.2-.1.4-.2.7-.2h.2v.6h0Z"/>
  <path class="st1" d="M219.8,4c-.2,0-.4,0-.5,0,0,0-.1,0-.2,0h0v.4h0c0,0,.2-.1.3-.2.1,0,.3,0,.4,0s.2,0,.3.1c0,0,0,.2,0,.3v.3h-.2c-.3,0-.7,0-.9.2-.2.1-.3.4-.3.7,0,.4.3.7.8.7s.5,0,.6-.3v.3h.4v-1.8c0-.1,0-.2,0-.4,0-.2-.2-.4-.6-.4ZM220.2,5.9c0,.2-.3.4-.6.4s-.2,0-.3,0c0,0,0-.2,0-.3s0-.3.2-.4c.2-.1.4-.2.7-.2h.2v.6Z"/>
  <path class="st1" d="M222,5.1h-.3c-.2-.1-.3-.2-.3-.4s.2-.4.4-.4h0c.2,0,.4,0,.6.2h0v-.3q.1,0,.1,0c-.2-.1-.5-.2-.7-.2-.4,0-.8.2-.9.7h0c0,.4.2.7.6.7h.3c.3,0,.4.2.4.5s-.2.4-.4.4h0c-.3,0-.5,0-.8-.2h0v.3h-.1c.3.2.6.2.9.2.6,0,.9-.3.9-.8,0-.3-.2-.5-.6-.6Z"/>
  <path class="st1" d="M223.2,4h-.4v2.5h.4v-2.5h0Z"/>
  <path class="st1" d="M196.1,4.8c0,0,0-.1,0-.2s0,0,0,0l-.3.2h.2c0,.1.2,0,.2,0Z"/>
  <path class="st1" d="M196.1,6h.1s0,0,0,0h0v-.6s0,0,0-.1c0,0,0,0,0,0l-1.1-.9h-.1s0,0,0,0h0v.6s0,0,0,.1c0,0,0,0,0,0l1.1.9Z"/>
  <path class="st1" d="M195.2,5.2h0l-.2.2s0,0,0,0h0s.3-.3.3-.3h0Z"/>
  <path class="st1" d="M196.2,6.7s0,0,0,0l-1.1-.9h0c0,0,0,0,0,0h0s0,0,0,0h0c0,0,0,.1,0,.2v.8s0,0,0,.1c0,0,0,0,0,0l1,.9h.1s0,0,0,0h0v-.8c0-.1,0-.2,0-.2Z"/>
  <path class="st1" d="M196.2,3.6s0,0,0,0l-1.1-.9h-.1s0,0,0,0h0v.8s0,0,0,.1c0,0,0,0,0,0l1.1.9h0s0,0,0,0c0,0,0,0,0,0s0,0,0,0c0,0,0,0,0,0h0c0,0,0-.1,0-.2v-.8c0,0,0-.1,0-.2Z"/>
  <path class="st1" d="M196.6,6v.6l.2-.2v-.6h0l-.2.2h0Z"/>
  <path class="st1" d="M196.8,4.4h0l-.2.2h0v.4l.2-.2v-.4h0Z"/>
  <path class="st1" d="M197.7,4.6s0,0,0-.1v-1.9h0q0,0,0,0h0s0,0,0,0l-1.1.9s0,0,0,0c0,0,0,0,0,.1v.8h0c0,0,0,0,0,0h0l.2-.2.7-.6s0,0,0,0h0c0,0,0,0,0,0h0v.2c0,0,0,.2,0,.2l-.7.6h0l-.2.2h0s0,0,0,0c0,0,0,0,0,.1v.6h0c0,0,0,0,0,0h0M196.5,5.9l.2-.2.7-.6h.1s0,0,0,0h0v.3s0,0,0,.1c0,0,0,0,0,0l-.9.8s0,0,0,0c0,0,0,0,0,.1v.8h0c0,0,0,0,0,0h0l1.1-.9c0,0,0-.1,0-.2v-1.7h0c0,0,0,0,0,0h0c0,0,0,0,.1,0l-1.2,1.4Z"/>
  <path class="st1" d="M196.2,2.1h0l-.5-.4h0v.4h.2v.4h0c0,0,0,0,0,0h0v.4h0s.4.3.4.3h0v-.4h0s0,0,0,0v-.3h0c0,0,0,0,0,0h0v-.4h0Z"/>
  <path class="st1" d="M197,2.1h0v-.4h0l-.5.4h0v1h0s0,0,0,0h0l.5-.4h0v-.3h0l-.3.2v-.3l.3-.3Z"/>
  <rect class="st1" x="256.3" y="8.2" width=".5" height="10"/>
  <path class="st1" d="M260.7,18.2h2.2v-3.1h1.7c.5,0,1.1,0,1.6-.2.5-.1.9-.4,1.3-.7s.7-.7.9-1.1c.2-.5.3-1,.3-1.5h0c0-.5,0-.9-.3-1.4-.2-.4-.4-.8-.8-1.1-.3-.3-.8-.5-1.2-.7-.5-.2-1.1-.3-1.6-.2h-4.1v10h0ZM262.9,13.2v-3h1.7c.5,0,.9,0,1.3.4.3.3.5.7.5,1.1h0c0,.4-.2.8-.4,1.1-.4.3-.8.5-1.3.4h-1.8Z"/>
  <path class="st1" d="M276.5,17.8c.6-.3,1.2-.6,1.7-1.1.5-.5.8-1,1.1-1.6.3-.6.4-1.3.4-2h0c0-.7-.1-1.4-.4-2-.3-.6-.6-1.1-1.1-1.6-.5-.5-1-.8-1.7-1.1-1.4-.5-2.9-.5-4.3,0-.6.3-1.2.6-1.7,1.1s-.8,1-1.1,1.6c-.3.6-.4,1.3-.4,2h0c0,.7.1,1.4.4,2,.3.6.6,1.1,1.1,1.6,1,1,2.4,1.5,3.8,1.5.7,0,1.5-.2,2.1-.4ZM273.1,16c-.4-.2-.7-.4-1-.7-.3-.3-.5-.6-.6-1s-.2-.8-.2-1.2h0c0-.4,0-.8.2-1.2.1-.4.3-.7.6-1,.3-.3.6-.5.9-.7.4-.2.8-.2,1.2-.2s.8,0,1.2.2.7.4,1,.7c.3.3.5.6.6,1,.1.4.2.8.2,1.2h0c0,.4,0,.8-.2,1.2-.1.4-.3.7-.6,1-.3.3-.6.5-.9.7-.4.2-.8.2-1.2.2-.4,0-.8,0-1.2-.2h0Z"/>
  <path class="st1" d="M285.8,18c.4-.1.8-.3,1.2-.6.3-.3.6-.6.7-1,.2-.4.3-.9.3-1.3h0c0-.4,0-.8-.2-1.2-.1-.3-.3-.6-.6-.8-.3-.2-.6-.4-1-.6-.4-.2-.9-.3-1.3-.4-.4,0-.8-.2-1.1-.3-.2,0-.5-.2-.7-.3-.1,0-.3-.2-.3-.3s0-.3,0-.4h0c0-.3.1-.5.3-.6.3-.2.6-.3,1-.2.4,0,.9,0,1.3.3.5.2.9.4,1.3.7l1.1-1.6c-.5-.4-1.1-.7-1.7-.9-.6-.2-1.3-.3-2-.3s-1,0-1.4.2c-.4.1-.8.3-1.1.6-.3.3-.5.6-.7.9-.2.4-.3.8-.3,1.2h0c0,.5,0,.9.2,1.3.2.3.4.6.7.8.3.2.7.4,1,.6.4.2.9.3,1.4.4.4,0,.8.2,1,.3.2,0,.4.2.6.3.1,0,.2.2.3.3,0,0,0,.2,0,.4h0c0,.3-.1.6-.4.7-.3.2-.7.3-1.1.2-.5,0-1.1,0-1.6-.3s-1-.5-1.4-.9l-1.3,1.5c.6.5,1.3.9,2,1.2s1.5.4,2.2.4c.5,0,1,0,1.5-.2Z"/>
  <path class="st0" d="M310.9,5.2c0,0,0,.2-.2.3,0-.5-.4-1-.7-1.3.3,0,.5.1.7.3.2.2.2.4.2.7h0ZM309.9,4.3c0,0,0,.2,0,.4h0c0,.3,0,1,.2,1.3,0,0,.1,0,.2,0h0s.2,0,.3-.3c0-.2-.3-1.1-.7-1.4h0ZM309.5,4.3c-.1,0-.6-.1-1.3.3-.4.2-.6.5-.5.8,0,.3.2.5.5.6.6-.5,1.1-1.1,1.4-1.8h0ZM309.3,6.2h0ZM309.6,4.4c-.2.5-.5.9-.8,1.3-.1.2-.3.3-.5.5,0,0,.2.5.5.5s.6-.5.6-.5h0c.2-.6.3-1.2.2-1.8h0ZM310.9,2.9c0,0,0-.2-.1-.3,0,.1,0,.3-.2.4-.2.3-.4.6-.7.9.3,0,.7-.1.8-.4,0-.2.2-.4.1-.6h0ZM310.3,2.1c0,0-.2,0-.2,0-.3.2-.3.9-.3,1.2h0v.5c.4-.3.7-.8.8-1.3,0-.4-.3-.4-.3-.4h0ZM309.6,3.4c0-1-.3-1.6-.8-1.7,0,0-.2,0-.3,0-.1,0-.2.2-.3.4.6.4,1.1.9,1.3,1.6v-.3h0ZM308.1,2.3c-.3,0-.5.3-.5.6s0,.4.2.5c.1.2.3.3.5.4.7.3,1.1,0,1.2,0-.3-.7-.7-1.2-1.4-1.6Z"/>
  <path class="st0" d="M316.1,12.5h-3v-3c0-.2-.1-.4-.3-.4h-1.3c-.2,0-.4.1-.4.3h0v3h-2.9c-.2,0-.4,0-.4.3h0v1.4c0,.2,0,.4.3.4h3v2.9c0,.2.1.4.3.4h1.4c.2,0,.4-.1.4-.3h0v-3h3c.2,0,.4,0,.4-.3h0v-1.4c0-.2-.1-.4-.3-.4s0,0,0,0Z"/>
  <path class="st0" d="M321.5,15.7c0,.5-.4,1-.9,1h0c-.6,0-1-.4-1-1v-1.5c0-.5.6-.9,1.1-.8.4,0,.8.4.8.8v1.5h0ZM323.1,15.7v-1.5c0-1.3-1-2.4-2.3-2.4h0c-.6,0-.9.3-1.1.3s0,0,0-.2v-2.4c0,0,0-.1,0-.1h-1.3c0,0-.1,0-.1.1v8.4c0,0,0,.1.1.1h1.2c.2,0,0-.3.2-.3s.5.3,1.1.3c1.3,0,2.4-.9,2.5-2.2,0,0,0,0,0-.2h0Z"/>
  <path class="st0" d="M327.1,15.8c0,.5-.3,1.1-.8,1.1s-1.1-.3-1.1-.8v-2c0-.5.3-1.1.8-1.1s1.1.3,1.1.8v2ZM328.7,15.8v-1.7c0-1.5-1-2.4-2.6-2.4s-2.6,1-2.6,2.4v1.7c0,1.5,1,2.4,2.6,2.4s2.6-1,2.6-2.4Z"/>
  <path class="st0" d="M334.4,18.1h-1.3c0,0-.1,0-.1-.1v-3.8c0-.6-.4-1-1-1s-1,.4-1,1v3.8c0,0,0,.1-.1.1h-1.3c0,0-.1,0-.1-.1v-6.1c0,0,0-.1.1-.1h1.2c.2,0,.1.3.2.3.2,0,.5-.3,1.1-.3,1.3,0,2.4,1,2.5,2.3v3.9c0,0,0,.1,0,.1h0Z"/>
  <path class="st0" d="M340.4,18.1h-1.2c-.2,0,0-.3-.2-.3s-.5.3-1.1.3c-1.3,0-2.4-.9-2.5-2.2v-4c0,0,0-.1.1-.1h1.3c0,0,.1,0,.1,0h0v3.8c0,.5.4,1,.9,1h0c.6,0,1-.4,1-1v-3.8c0,0,0-.1.1-.1h1.3c0,0,.1,0,.1,0h0v6.1c0,0,0,.1-.1.1h0Z"/>
  <path class="st0" d="M345.5,12.1c.4.3.7.7.8,1.1,0,0,0,0,0,0l-1.1.6s0,0,0,0c0,0,0,0,0,0-.3-.4-.4-.8-1-.8h-.4c-.5,0-.8.2-.8.5,0,.6.8.4,1.9.7,1.1.3,1.7.8,1.7,1.7,0,1.3-.9,2.2-2.4,2.2h-.4c-.7,0-1.3-.2-1.8-.7-.3-.3-.5-.6-.6-1,0,0,0,0,0,0l1.1-.6s0,0,0,0c0,0,0,0,0,0,.3.5.5.8,1,.8h.4c.5,0,.8-.3.8-.6,0-.6-.8-.4-1.9-.7s-1.6-.8-1.6-1.7,1-2.1,2.3-2.1h.4c.6,0,1.2.1,1.6.5h0Z"/>
  <path class="st0" d="M353.4,16.5l-1.2-.6h0c0,0-.1,0-.2.3-.2.4-.5.7-.9.7s-1-.4-1-1h0v-1.8c0-.5.4-1,1-1h0c.4,0,.7.2.9.7,0,.2,0,.2.2.2h0l1.2-.6s0,0,0,0c-.2-.5-.5-.9-.9-1.2-.5-.3-1-.5-1.6-.5-1.6,0-2.6,1-2.6,2.5v1.7c0,1.5,1,2.5,2.6,2.5.7,0,1.3-.2,1.8-.6.5-.5.7-.9.7-1,0,0,0-.1,0-.2h0Z"/>
  <path class="st0" d="M358.9,18v-3.9c0-1.5-1-2.4-2.6-2.4-.6,0-1.3.2-1.8.6-.3.3-.5.6-.7,1,0,0,0,0,0,0l1.1.6s0,0,0,0c0,0,.2-.2.4-.5.2-.2.5-.4.8-.4.5,0,1,.4,1,.9h0v.2h0c0,0,0,.2,0,.2h-1.4c-1.2,0-2,.8-2,1.9h0c0,1,.8,1.8,1.8,1.9h.7c.5,0,.8-.3,1-.3s0,.3.2.3h1.2c.1,0,.2,0,.2-.1h0ZM357.3,15.7v.2c-.2.5-.5.8-.9.8h-.5c-.2,0-.4-.2-.4-.4h0v-.2c0-.2.2-.4.4-.4h1.5Z"/>
  <path class="st0" d="M363.3,13.4v-1.3c0-.1-.3-.3-.8-.3s-.8.2-1.1.4h0c0,0-.1,0-.1,0h0c0-.2,0-.3-.1-.3h-1.2c0,0-.1,0-.1.1v6.1c0,0,0,.1.1.1h1.3c0,0,.1,0,.1-.1v-3.8c0-.5.4-1,.9-1h0c.4,0,.7.3.9.3s0,0,0-.2Z"/>
  <path class="st0" d="M368.7,18v-8.5c0,0,0-.1,0-.1h-1.4c0,0-.1,0-.1.1v2.4c0,0,0,.2,0,.2-.1,0-.5-.3-1.1-.3-1.3,0-2.4,1-2.4,2.4h0v1.6c0,1.3,1,2.4,2.3,2.5h.2c.6,0,1-.3,1.1-.3s0,.3.2.3h1.2c0,0,.1,0,.1-.2h0ZM367.1,15.7c0,.5-.3,1.1-.8,1.1s-1.1-.3-1.1-.8v-1.7c0-.5.6-.9,1.1-.8.4,0,.8.4.8.8v1.4h0Z"/>
  <path class="st0" d="M323.3,3c0,0,0-.1,0-.2,0,0-.1,0-.2,0s-.1,0-.2,0c0,0,0,0,0,.1h0c0,.1,0,.2,0,.3,0,0,.1,0,.2,0s.1,0,.2,0c0,0,0-.1,0-.2h0ZM323.3,5.6c0-.2,0-.4,0-.5v-1.1c0-.2,0-.4-.2-.4-.1,0-.3,0-.4.1,0,0,0,.2,0,.4v1c0,.2,0,.4,0,.5h.5ZM322.1,5.6c-.2,0-.3,0-.5-.2,0-.1,0-.3,0-.5v-1.1h-.3v-.3h.3s0-.5,0-.5h.4s0,.5,0,.5h.5v.3h-.5v1.1c0,.2,0,.3.3.3s.2,0,.3,0v.3c-.1,0-.3.2-.5.2h0ZM315.4,5.2c0,0-.3.1-.4.2-.2,0-.3,0-.3-.3,0-.3.3-.5.7-.4v.6h0ZM315.9,5.6c0-.2,0-.3,0-.5v-.9c0-.6-.3-.8-.8-.8s-.4,0-.6.1v.3c.1,0,.3-.1.6-.1.4,0,.4.3.4.6-.5-.2-1.2,0-1.2.7,0,.3.3.6.6.6h0c.2,0,.4,0,.6-.3v.2s.5,0,.5,0ZM320.5,5.6c0,0,0-.2,0-.3v-1.1c0-.3,0-.4-.3-.4-.2,0-.4,0-.5.2v1.3c0,0,0,.1,0,.2h-.5c0-.2,0-.3,0-.5v-1c0-.3,0-.4,0-.4,0,0,.2-.1.4-.1s.2.1.2.3c.2-.2.4-.3.7-.3.2,0,.4,0,.5.2,0,0,0,0,0,.1,0,0,0,.2,0,.3v.9c0,.2,0,.3,0,.5h-.6ZM317.3,3.8h0c-.2,0-.3,0-.4.2v1c0,.2,0,.3,0,.5h-.5v-1.6c0-.2,0-.4-.1-.4,0,0,.2,0,.4-.1.2,0,.2.1.2.3.1-.2.4-.4.6-.3v.4h0ZM319,5.6c0-.2,0-.3,0-.5v-.9c0-.6-.3-.8-.8-.8s-.4,0-.6.1v.3s0,0,.2,0c.1,0,.3,0,.4,0,.4,0,.4.3.4.6-.5-.2-1.2,0-1.2.7,0,.3.3.6.6.6h0c.2,0,.4,0,.6-.3,0,0,0,.1,0,.2h.5ZM318.5,5.2c0,0-.3.2-.4.2-.2,0-.3,0-.3-.3,0-.3.3-.5.7-.4v.6h0Z"/>
  <path class="st0" d="M313.8,3.1c-.2,0-.5-.1-.7-.1s-.6,0-.8.3-.3.5-.3.8c0,.3,0,.6.3.9s.5.3.8.3.3,0,.4,0v-.7h0c0-.1-.4-.1-.4-.1,0,0,0-.2,0-.3h.9c0,.2,0,.4,0,.5v.4c0,.2,0,.4,0,.5-.3.1-.6.2-1,.2-.4,0-.8-.1-1.1-.4-.3-.3-.4-.7-.4-1.1s.2-.8.5-1.1.7-.5,1.2-.4c.3,0,.5,0,.8.1v.4h0Z"/>
  <path class="st0" d="M388.3,9.8c0-.3,0-.6,0-.8h3.9l-3-3c.3-.5.6-1,1-1.5l4.5,4.5c.4.4.4,1.1,0,1.5l-4.5,4.5c-.4-.5-.7-.9-1-1.5l3-3h-3.9c0-.3,0-.6,0-.8"/>
  <path class="st0" d="M396.4,1.7c.3,0,.6,0,.8,0v3.9l3-3c.5.3,1,.6,1.5,1l-4.5,4.5c-.4.4-1.1.4-1.5,0l-4.5-4.5c.5-.4,1-.7,1.5-1l3,3V1.7c.3,0,.6,0,.9,0"/>
  <path class="st0" d="M404.5,9.8c0,.3,0,.6,0,.8h-3.9l3,3c-.3.5-.6,1-1,1.5l-4.5-4.5c-.4-.4-.4-1.1,0-1.5l4.5-4.5c.4.5.7,1,1,1.5l-3,3h3.9c0,.3,0,.6,0,.8"/>
  <path class="st0" d="M396.4,17.9c-.3,0-.6,0-.8,0v-3.9l-3,3c-.5-.3-1-.6-1.5-1l4.5-4.5c.4-.4,1.1-.4,1.5,0l4.5,4.5c-.5.4-.9.7-1.5,1l-3-3v3.9c-.3,0-.6,0-.9,0"/>
  <path class="st0" d="M428.6,3.3h3.3c.6,0,1.1.5,1.1,1.1h0c0,.8-.5,1.3-1.2,1.3h-2.7c0,.8.4,1.3,1,1.3h1.8c.7,0,1.5.5,1.5,1.1h0c0,.8-.5,1.3-1.2,1.3h-3.6V3.3h0ZM417.9,2.1h.9c.4,0,.8.2,1,.5l4.5,5.8V2.1h1.4v8.7h-.9c-.3,0-.6-.2-.8-.4l-4.7-6.1v6.5h-1.4V2.1h0ZM411.9,7.9l1.6,1.7c-.4.2-.9.3-1.3.3-1.8,0-3-1.4-3-3.4s1.2-3.4,3-3.4,3,1.4,3,3.4-.2,1.5-.6,2.2l-.7-.7c-.6-.6-1.4-.6-2,0ZM412.2,1.9c2.7,0,4.5,2.1,4.5,4.6,0,1.2-.4,2.3-1.2,3.2l1.1,1.2c-.3.2-.6.4-1,.4-.3,0-.7-.1-.9-.4l-.3-.3c-.7.4-1.5.6-2.3.6-2.7,0-4.5-2.1-4.5-4.6s1.8-4.6,4.5-4.6h0ZM430.9,14h-2.1v4.2h2.3c1.4,0,1.8-1.7.7-2.1,0,0-.2,0,0,0,0,0,.2-.1.3-.2.6-.7,0-1.7-1-1.7h0ZM413.2,14h.4c.3,0,.5,0,.7.3l1.7,2.7v-2.9h.7v4.2h-.4c-.2,0-.3,0-.4-.2l-2-2.9v3.1h-.8v-4.2h0ZM421.3,14h.4c.3,0,.5,0,.7.3l1.7,2.7v-2.9h.7v4.2h-.5c-.2,0-.3,0-.4-.2l-1.9-2.9v3.1h-.8v-4.2ZM436.6,14h.4c.3,0,.5,0,.7.3l1.7,2.7v-2.9h.7v4.2h-.4c-.2,0-.3,0-.4-.2l-2-2.9v3.1h-.8v-4.2ZM408,12.7h4.6v.2c0,.3-.2.6-.5.6h-3.1v1.5h2.3v.8h-2.3v2.3h-.9v-5.4ZM412.6,14v4.2h0c-.3,0-.6-.2-.6-.5v-3.7h.7ZM419.4,14l.6,1.5,1,2.7h-.5c-.2,0-.3,0-.4-.3l-.3-.9h-1.6l-.4,1.1h-.8l1-2.7.6-1.5h.9ZM419,14.9l-.6,1.4h1.1l-.5-1.4ZM434.7,14l.6,1.5,1,2.7h-.5c-.2,0-.3,0-.4-.3l-.3-.9h-1.6l-.4,1.1h-.8l1-2.7.6-1.5h.9ZM434.3,14.9l-.6,1.4h1.1l-.5-1.4ZM425.6,17.1l-.5.6c.4.4,1,.6,1.6.6,1.1,0,1.7-.6,1.7-1.3,0-1.6-2.3-1-2.2-1.9,0-.6.8-.5.8-.5.4,0,.9.1,1.2.5.6-.9-.8-1.1-1.2-1.1-1.1,0-1.6.5-1.6,1.2s.4,1,1.3,1.3c0,0,.9.1.9.7s-.8.6-.8.6c-.4,0-.8-.2-1.1-.6h0ZM440.7,14h.8v1.9l1.8-1.9h1l-1.4,1.6,1.6,2.6c-.3.1-.7.1-.9,0l-1.2-2-.7.8v1.2h-.8v-4.2ZM429.4,14.6h1.4c.3,0,.5.2.5.5h0c0,.4-.3.6-.6.7h-1.1c0,.4.2.6.5.6h.7c.3,0,.7.2.7.5h0c0,.4-.3.6-.6.6h-1.6v-3h0ZM431.9,2.1h-4.8v8.7h5.1c2.9,0,3.8-3.6,1.4-4.4-.2,0-.4,0-.1-.2.2,0,.4-.3.6-.5,1.3-1.5,0-3.7-2.1-3.7h0Z"/>
  <path class="st1" d="M488.8,5.2h.6c1-.7,1.9-3.4.2-3.4-1.4.4-2.2,2.5-.8,3.4Z"/>
  <path class="st1" d="M474.7,5.6c-.7-.2-1.4-.2-2.1,0-.5.2-1,.4-1.4.7-1.9-1.2-3.9-1.1-5.5.4-.6.7-.5.6-.9,1.6,0,1-.2,2-.4,3h0c-.2,1.2-.4,2.4-.5,3.6h0c0,.1,1.8.1,2.2,0,0,0,0,0,0,0h0c0-.4.3-1.9.6-3.6h0c.2-1,.3-2.1.5-3.2.2-.4,0-.4.6-.8.6-.3,1.4-.2,1.6.5,0,1.2-.1,2.3-.3,3.5h0c-.2,1.2-.4,2.4-.6,3.6h0c0,0,2.3,0,2.3,0h0c.1-1.2.3-2.5.5-3.6h0c.2-1.6.5-3,.7-3.6s1.6-.9,2.1,0c.2.3,0,1.8-.3,3.6h0c-.2,1.2-.4,2.5-.5,3.5h0v.2h2.2s0-.1,0-.2h0c.2-1.2.3-2.3.5-3.5h0c.1-1,.3-1.9.4-2.9,0-1.3-.6-2.4-2-2.8Z"/>
  <path class="st1" d="M506.8,5.6c-.7-.2-1.4-.2-2.1,0-.5.2-1,.4-1.4.7-1.9-1.2-3.9-1.1-5.5.4-.6.7-.5.6-.9,1.6,0,1-.2,2-.4,3h0c-.2,1.2-.4,2.4-.5,3.6h0c0,.1,1.8.1,2.2,0,0,0,0,0,0,0h0c0-.4.3-1.9.6-3.6h0c.2-1,.3-2.1.5-3.2.2-.4,0-.4.6-.8.6-.3,1.4-.2,1.6.5,0,1.2-.1,2.3-.3,3.5h0c-.2,1.2-.4,2.4-.6,3.6h0c0,0,2.3,0,2.3,0h0c.1-1.2.3-2.5.5-3.6h0c.2-1.6.5-3,.7-3.6s1.6-.9,2.1,0c.2.3,0,1.8-.3,3.6h0c-.2,1.2-.4,2.6-.5,3.6h0c0,0,2.2,0,2.2,0h0c.2-1.3.3-2.5.5-3.7h0c.1-1,.3-1.9.4-2.9,0-1.3-.8-2.5-2-2.8Z"/>
  <path class="st1" d="M527.7,5.6c-.7-.2-1.4-.2-2.1,0-.5.2-1,.4-1.4.7-1.9-1.2-3.9-1.1-5.5.4-.6.7-.5.6-.9,1.6,0,1-.2,2-.4,3h0c-.2,1.2-.4,2.4-.5,3.6h0c0,.1,1.8.1,2.2,0,0,0,0,0,0,0h0c0-.4.3-1.9.6-3.6h0c.2-1,.3-2.1.5-3.2.2-.4,0-.4.6-.8.6-.3,1.4-.2,1.6.5,0,1.2-.1,2.3-.3,3.5h0c-.2,1.2-.4,2.4-.6,3.6h0c0,0,2.3,0,2.3,0h0c.1-1.2.3-2.5.5-3.6h0c.2-1.6.5-3,.7-3.6s1.6-.9,2.1,0c.2.3,0,1.8-.3,3.6h0c-.2,1.2-.4,2.6-.5,3.6h0c0,0,2.2,0,2.2,0h0c.2-1.3.3-2.5.5-3.7h0c.1-1,.3-1.9.4-2.9,0-1.3-.5-2.4-2-2.8Z"/>
  <path class="st1" d="M517.2,5.7h-2.2c-.2,1.9-.5,3.7-.8,5.5h0v.8c-.3.9-.3.9-.6,1.2-.6.5-1.5.8-2.1,0-.2-.2-.2-.5-.2-.8,0-.3,0-.8,0-1.2h0c.2-2.2.8-5.3.9-5.5h-2.2c-.3,1.6-.6,3.8-.8,5.5h0c-.1,1.2-.2,2.2,0,2.5.1.3.3.6.6.8,0,0,.2.2.3.2h0c.3.2.6.3,1,.4.7,0,1.4,0,2,0,.4,0,.8-.2,1.2-.3h0c.7-.3,1.1-.8,1.5-1.8.2-.6.3-1.2.4-1.8h0c.3-1.6.6-3.9.9-5.5Z"/>
  <path class="st1" d="M494.1,5.7c0,1.1-.2,2.1-.7,5.5h0c0,.8-.2,1.7-.4,2.7,0,.2-.1-.3-.3-.3-.5-.8-.8-1.2-1.6-2.5h0l-.8-1.2v-.4c1.9-2.4,2.2-2.7,4.7-5.9,0-.2.2-.5.3-.7-.2-1.4-1.3-1.6-2.2-.8-1.3,1.8-2.7,3.6-3.9,5.4,0,0-.2,0-.3,0-1.5-2.2-1.8-2.6-2.1-3-.3-.3-.6-.3-1,0-1.1,1.9,1.4,3.4,1.6,5.2-.3.5-.6,1-.9,1.4h0c-.6.8-1.3,1.7-1.8,2.4,0,.4.1.8.3,1.1h0c0,.2.2.4.2.6,0,0,.1,0,.2,0,.3-.3.5-.5.6-.6h0c.8-1,1.6-2,2.4-3h.4c.6,1,1.1,2,1.7,3h0c.7,1.2,1.4,2.4,2.1,3.6.7-.1,1.6-1.1,2.2-1.6,0-.7-.9-1.1-.9-1.8h1.2v-.2h0c.2-1.2.4-2.4.6-3.6h0c.3-1.8.5-3.7.7-5.5h-2.1Z"/>
  <path class="st1" d="M483.1,5.6c-1.5-.5-3.1,0-4.6.6-.3.5-.3,1.2-.3,1.8,0,0,.4-.2.5-.2.8-.5,2.5-.8,3.4-.6.6.3,1,1.1.3,1.6-2.1.3-4.1.6-5,1.6-.1.2-.2.5-.3.8-.3.9-.3,1.6.2,2.6,0,.3.3.6.6.8.1,0,.2.1.3.2.4.2.8.3,1.3.4.9,0,1.8,0,2.6-.4.7-.3,1.3-.6,1.9-1.1.2-.8.3-1.7.4-2.5h0c.2-1.6.7-3.9-.2-4.9-.3-.3-.6-.5-.9-.6ZM482.2,11.2c0,.6-.2,1.1-.2,1.7-.7.5-1.2.8-2.3.7-1.3-.6-1.3-1.2-.8-2.4h0c.2-.3.4-.4.6-.5.8-.4,2.1-.6,2.8-.3,0,.2,0,.5,0,.8h0Z"/>
  <path class="st1" d="M559.3,3.7c-.2-.8-.8-1.5-1.6-1.8-.8-.4-1.7-.3-2.5,0-1.9,1.1-2.9,3.8-3.5,6.4-.9-.6-1.5-1.5-1.7-2.6l-.9.6c.4,1.3,1.2,2.4,2.4,3.1-.2,1.4-.4,2.8-.5,4.2h0c0,.5,0,1.5,0,2.6l1-.6c0-.8,0-1.5,0-1.9h0c0-1.3.2-2.6.4-3.9,1.6.4,3.4,0,5-1.2,1.5-1.1,2.3-3.2,1.8-4.9ZM556.9,7.9c-1.3,1-2.8,1.4-4.1,1,.6-2.6,1.5-5.1,3.1-5.9.5-.3,1.1-.3,1.6,0,.5.2.9.6,1,1.1.3,1.3-.4,3-1.5,3.9ZM574.7,9c.5-1,.8-2.6.4-3.6-.2-.6-.8-1.1-1.5-1-1.3,0-1.8,1.7-2.1,2.5-.6,2.1-1,4.3-1.1,6.5h-.1c-.3.3-.6.5-1,.7,0-.1,0-.3,0-.4,0-.3,0-1.1,0-1.8,0-.4,0-.7,0-.9h0c0-.8-.5-1.3-1.2-1.3-.7,0-1.4.4-1.9.9-.6.6-1.1,1.3-1.4,2.1-.1.4-.2.8-.3,1.1,0,0-.2.2-.3.2-.7.5-.9.3-1,.3-.3-.3,0-1.1.3-1.8s.5-1.3.4-1.8c0-.2-.1-.3-.3-.3-.1,0-.3,0-.4,0-.4.2-.9.3-1.3.3v-.2c.2-.5,0-1.1-.3-1.5-.4-.4-1-.4-1.4,0-.5.3-.7,1-.5,1.6.2.5.5.8,1,1-.4,1.2-1.1,2.5-1.8,3,0-.3-.2-1.1,0-3v-.3c0-.4,0-.7-.3-1-.2-.2-.5-.3-.8-.3s-.5,0-.8.2c-.2,0-.5.2-.7.3-.9.6-1.7,1.5-2.1,2.6-.3.7-.3,1.4,0,2.1.3.4.7.6,1.1.6h0c.5,0,1.1-.3,1.4-.6.4-.3.7-.6.9-1,0,.9.3,1.4.6,1.6.1,0,.3,0,.4,0s.3,0,.4,0c1.1-.6,2-2.4,2.5-3.8h.2c.3,0,.7,0,1-.1,0,.2-.2.4-.2.6-.4,1-.9,2.2,0,2.9.6.4,1.3.4,2.1-.2.2.4.6.6,1,.6.9,0,1.7-.8,1.8-.9.2-.2.4-.4.6-.7,0,.3,0,.9.7,1.2.1,0,.3,0,.4,0,.4,0,.7-.2,1.1-.4,0,1.2,0,2.5,0,3.8l1-.6c0-1.3,0-2.6,0-3.9.6-.4,1.3-.8,1.9-1l.4-1.1c-.8,0-1.6.4-2.3.8.1-1.9.5-3.7,1-5.5.2-.5.5-1.8,1.1-1.8s.4,0,.5.4c.2.7,0,1.8-.3,2.5l.9.6ZM558,10.8c0,.2,0,.4-.1.6-.3,1.1-.6,1.7-1.5,2.5-.2.2-.5.3-.8.4h0c-.1,0-.3,0-.3-.2-.2-.4-.2-.8,0-1.1.4-.8,1-1.6,1.7-2.1.2,0,.3-.2.5-.3.1,0,.3,0,.4,0h0s0,0,0,.3h0ZM561.1,10.1c0,0,0,0,0,.2-.2,0-.3-.2-.3-.4,0,0,0-.2,0-.3,0,0,0,0,.2,0h0c0,0,.1.2,0,.6h0ZM568.4,10.8c0,.1,0,.3,0,.4-.2.9-.6,1.7-1.3,2.3-.3.3-.7.5-1.1.6,0,0-.1,0-.2-.2s0-.6.1-1.3c.3-.6.6-1.2,1.1-1.7.3-.3.7-.6,1.2-.6,0,0,.2,0,.2.4h0ZM574.3,14.1v1h1v-1h-1Z"/>
  <path class="st1" d="M610.1,8.9c0,0,.2,0,.2.2h0s-2.4,8.9-2.4,8.9c0,0,0,.1-.2.1h-3.9c0,0-.1,0-.2-.1l-1-4.1c0-.1,0-.1-.1,0l-1,4.1c0,0,0,.1-.2.1h-4c0,0-.1,0-.2-.1l-2.3-8.9c0,0,0-.2.1-.2h3.9c0,0,.1,0,.2.1l.8,4.4c0,0,0,0,.1,0l.9-4.4c0,0,0-.1.2-.1h3c0,0,.1,0,.2.1l.8,4.4c0,0,0,0,.1,0l.9-4.4c0,0,0-.1.2-.1h3.8Z"/>
  <path class="st1" d="M636.3,9.1c0,0,0-.2.2-.2h3.3c0,0,.2,0,.2.2h0v5.8s0,0,0,0h5.4c0,0,.2,0,.2.2h0v2.8c0,0,0,.2-.2.2h-9c0,0-.2,0-.2-.2v-8.9h0Z"/>
  <path class="st1" d="M657.6,13.5c0-1.8-.3-3.5-2-4.2-1.1-.5-3-.5-3.9-.5-3.2,0-5.1.2-5.1.2,0,0-.2,0-.1.2v8.6c0,0,0,.1.1.2,1.7.2,3.4.3,5.1.3s3-.1,3.9-.5c1.6-.7,1.9-2.4,1.9-4.2ZM650.1,15v-2.9s0,0,0,0c.4,0,1.1,0,1.6,0,1.8,0,1.9.3,1.9,1.6s-.1,1.6-1.9,1.6-1.6,0-1.6,0c-.1,0-.1,0-.1,0Z"/>
  <path class="st1" d="M618.5,13.6c0-1.4-.3-1.9-2-1.9s-2,.5-2,1.9.3,1.9,2,1.9,2-.5,2-1.9ZM622.5,13.5c0,1.8-.3,3.7-2,4.3-.8.3-2.1.5-4,.5s-3.2-.2-4-.5c-1.6-.7-2-2.5-2-4.3s.3-3.6,2-4.3c.8-.3,2.1-.5,4-.5s3.2.2,4,.5c1.7.7,2,2.4,2,4.3h0Z"/>
  <path class="st1" d="M635.3,17.8c-1-1-2-1.9-3.1-2.8h-.1c0,0,.2-.1.2-.1,1.4-.3,2.4-1.5,2.5-3,0-1.3-.3-2.5-1.9-2.9-1.4-.4-8.9-.2-8.9-.2,0,0-.2,0-.2.2v8.9c0,0,0,.2.2.2h3.3c0,0,.2,0,.2-.2v-2.9s0,0,0,0c0,0,0,0,0,0,1.1,1,2.2,2,3.3,3.1,0,0,0,0,0,0h4.3c0,0,.1,0,.1,0,0,0,0-.1,0-.2ZM627.3,13.2v-1.7s0,0,0,0h0c.4,0,.9,0,1.4,0s.9,0,1.3,0c.6,0,.8.3.8.8s-.3,1-.9,1c-.4,0-.8,0-1.3,0h-1.4s0,0,0,0t0,0Z"/>
  <rect class="st1" x="656.5" y="1.8" width="1" height=".8"/>
  <path class="st1" d="M637.3,4.6v2.1h-1.1v-2.1l-1-2.8h1.2l.3,1.4.4-1.4h1.2l-1,2.8Z"/>
  <path class="st1" d="M639.5,6.8v-.2c-.2.2-.5.3-.8.3-.4,0-.7-.4-.7-.8h0v-.7c0-1,1.4-.7,1.4-1.5s0-.3-.2-.3-.2.1-.2.3v.3h-1v-.3c0-.7.6-1,1.2-1s1.2.5,1.2,1v2.9h-1ZM639.4,4.9c-.2.2-.4.2-.4.5v.5c0,.2,0,.3.2.3s.2,0,.2-.3v-1h0Z"/>
  <path class="st1" d="M643.4,5.7c0,.6,0,1.1-.8,1.1-.3,0-.6,0-.7-.3v1.2h-1V3h1v.4c.1-.3.4-.5.8-.5.5,0,.7.5.7,1v1.8h0ZM642.3,4c0-.2,0-.3-.2-.3s-.2,0-.2.3v1.8c0,.2,0,.3.2.3s.2,0,.2-.3v-1.8Z"/>
  <path class="st1" d="M643.9,6.8v-3.8h1v3.7h-1Z"/>
  <path class="st1" d="M647.2,6.8l-.6-1.8v.3c-.1,0-.1,1.5-.1,1.5h-1.1V1.8h1.1v1.5l.7-1.5h1.1l-1,2.1,1.1,2.9h-1.2Z"/>
  <path class="st1" d="M650.4,4c-.2,0-.9,0-.9.5v2.2h-1v-3.8h.9v.4c.2-.3.6-.5,1-.5v1.1h0Z"/>
  <path class="st1" d="M653.2,5.8c0,.7-.5,1-1.2,1s-1.2-.3-1.2-1v-1.7c0-.7.4-1.1,1.2-1.1s1.2.3,1.2,1.1v1h-1.4v.9c0,.2,0,.2.2.2s.2,0,.2-.2v-.6h1v.4h0ZM652.1,3.8c0-.1,0-.2-.2-.2s-.2,0-.2.2v.5h.4v-.5Z"/>
  <path class="st1" d="M655.1,6.8v-.4c0,.3-.4.5-.8.5-.6,0-.7-.5-.7-1v-1.8c0-.6.1-1.1.7-1.1s.6,0,.7.3v-1.5h1v4.9h-1ZM655.1,4c0-.2,0-.3-.2-.3s-.2,0-.2.3v1.8c0,.2,0,.3.2.3s.2,0,.2-.3v-1.8h0Z"/>
  <path class="st1" d="M656.5,6.8v-3.8h1v3.8h-1Z"/>
  <path class="st1" d="M634.8,3.6c-.4-1.1-1.4-1.9-2.6-1.9-.9,0-1.7.3-2.4.9-.3.2-.5.5-.7.8h0c-.2-.3-.4-.6-.7-.8-.6-.6-1.5-1-2.4-.9-1.2,0-2.2.8-2.6,1.9-.2.7-.2,1.5.2,2.1.3.8,1.1,1.2,1.9,1.2.7,0,1.3-.4,1.5-1,.2-.6,0-1.2-.3-1.6,0,.2,0,.3,0,.5-.2.3-.5.3-.8.2-.2,0-.4-.3-.4-.6,0-.2.2-.4.4-.5.4-.2.8,0,1,.2.5.6.6,1.5.9,2.2.2.6.5,1.1,1.1,1.2,0,0,.2,0,.2,0h0c0,0,.2,0,.2,0,.6-.1.9-.6,1.1-1.2.3-.7.3-1.6.9-2.2.3-.3.7-.4,1-.2.2,0,.4.3.4.5,0,.2,0,.5-.3.6-.3.1-.6,0-.8-.2,0-.1-.1-.3,0-.5-.4.4-.6,1.1-.3,1.6.3.6.9,1,1.5,1,.8,0,1.6-.5,2-1.2.3-.7.4-1.4.1-2.1ZM633.6,5.8c-.3.3-.9.4-1.3.3-.2,0-.4-.3-.5-.6.4.4,1,.4,1.5,0,0,0,0,0,0,0,.3-.4.4-1,.2-1.4-.2-.5-.7-.8-1.2-.9-.7-.1-1.4.2-1.8.8-.5.8-.6,1.8-1,2.7,0,.1-.2.2-.3.2h0c-.1,0-.3,0-.3-.2-.4-.9-.5-1.9-1-2.7-.4-.6-1.2-.9-1.9-.8-.5,0-1,.4-1.2.9s0,1,.2,1.4c.3.4,1,.5,1.4.2,0,0,0,0,.1,0,0,.2-.2.5-.5.6-.4.2-1,0-1.3-.2-.5-.5-.7-1.3-.4-2,.3-.7,1-1.2,1.7-1.3.9,0,1.8.4,2.3,1.2,0,.2.3.7.3.7h1.1s.2-.5.3-.7c.5-.8,1.3-1.2,2.3-1.2.8,0,1.5.5,1.7,1.3.3.6,0,1.4-.4,1.9h0Z"/>
  <g id="Welcome">
    <g id="Desktop-HD">
      <g id="Logo">
        <path id="Fill-1" class="st0" d="M815.4,9c0,2.5-2.8,3-4.4,3.1,0,.7.3,1.2,1.3,1.2.7,0,1.4-.3,1.9-.6l.5,1.6c-.9.6-2,.9-3.2.9-2.2,0-3.1-1.3-3.1-3.1,0-2.5,1.7-5,4.6-5,1.4,0,2.3.7,2.3,2h0ZM812.7,8.8c-.9,0-1.4.9-1.6,1.7.9,0,2.1-.5,2.1-1.3s-.2-.5-.5-.5h0Z"/>
        <path id="Fill-2" class="st0" d="M823.6,7.3l-3.1,3.7,1.9,3.9h-2.6l-.9-2-1.6,2h-2.7l3.3-4-1.7-3.7h2.5l.8,2,1.5-2h2.6"/>
        <path id="Fill-3" class="st0" d="M824.6,18.3h-2.5l1.8-10.7c1.1-.4,2.3-.5,3.4-.6,2,0,3,1.1,3,3.1,0,3.1-1.6,5-4.1,5s-.8,0-1.2-.2l-.5,3.4ZM825.5,13.2c.2,0,.5.1.7.1,1.4,0,1.7-1.9,1.7-3.2s-.2-1.3-.9-1.3-.5,0-.8.1l-.7,4.2h0Z"/>
        <path id="Fill-4" class="st0" d="M832.8,14.9h-2.5l1.1-6.2v-1.4h2.1v1.1c.6-.9,1.4-1.3,2-1.3s.8,0,1.2.3l-.7,2.1c-.3-.2-.6-.3-1-.3-.6,0-1.2.5-1.3,1.1l-.8,4.7"/>
        <path id="Fill-5" class="st0" d="M842.8,9c0,2.5-2.8,3-4.4,3.1,0,.7.3,1.2,1.3,1.2.7,0,1.4-.3,1.9-.6l.5,1.6c-.9.6-2,.9-3.2.9-2.2,0-3.1-1.3-3.1-3.1,0-2.5,1.7-5,4.6-5,1.4,0,2.3.7,2.3,2h0ZM840.1,8.8c-.9,0-1.4.9-1.6,1.7.9,0,2.1-.5,2.1-1.3s-.2-.5-.5-.5h0Z"/>
        <path id="Fill-6" class="st0" d="M843.4,12.5c.6.4,1.4.7,2.1.8.5,0,.8-.2.8-.6s-.7-.6-1.3-.8c-.8-.3-1.8-.7-1.8-2.2s1.4-2.7,3.3-2.7,2.2.4,2.9,1.2l-1.3,1.3c-.4-.4-1-.7-1.6-.8-.5,0-.8.3-.8.6,0,.5.5.7,1.4,1,.8.3,1.7.8,1.7,2.1s-1.4,2.7-3.4,2.7c-1.1,0-2.1-.3-3-.9l.9-1.7"/>
        <path id="Fill-7" class="st0" d="M850.1,12.5c.6.4,1.4.7,2.1.8.5,0,.8-.2.8-.6s-.7-.6-1.3-.8c-.8-.3-1.8-.7-1.8-2.2s1.4-2.7,3.3-2.7,2.2.4,2.9,1.2l-1.3,1.3c-.4-.4-1-.7-1.6-.8-.5,0-.8.3-.8.6,0,.5.5.7,1.4,1,.8.3,1.7.8,1.7,2.1s-1.4,2.7-3.4,2.7c-1.1,0-2.1-.3-3-.9l.9-1.7"/>
        <path id="Fill-8" class="st0" d="M807.6,12.9h-8l-2.8,2h11.8c-.6-.5-.9-1.2-1-2"/>
        <path id="Fill-9" class="st0" d="M810,7.1h-7l-2.8,2h8c.4-.8,1-1.5,1.7-2"/>
        <path id="Fill-10" class="st0" d="M807.9,10h-6.5l-2.8,2h8.9c0-.7.1-1.3.4-2"/>
        <path id="Fill-11" class="st0" d="M813.5,3.6c0,0,0-.1,0-.2,0,0,0-.2,0-.2,0,0-.2,0-.3,0h-.6v.6h.6c.1,0,.2,0,.3,0"/>
        <path id="Fill-12" class="st0" d="M813.2,4.1h-.6v.7h.6c0,0,.2,0,.3,0,0,0,0-.2,0-.3s0-.2,0-.3c0,0-.2,0-.3,0"/>
        <path id="Fill-13" class="st0" d="M810.9,6.2h4.5V1.7h-4.5v4.5ZM814.2,4.8c0,0,0,.2-.2.3s-.2.1-.3.2c-.2,0-.3,0-.5,0h-1.3v-2.8h1.2c.3,0,.5,0,.7.2.2.1.3.3.2.5,0,.1,0,.3,0,.4s-.2.2-.3.2h0c.3,0,.5.3.5.6,0,.1,0,.2,0,.4h0Z"/>
        <path id="Fill-14" class="st0" d="M815.7,6.2h4.5V1.7h-4.5v4.5ZM818.3,5.3l-.7-1.2h-.3v1.2h-.7v-2.8h.7v1.1h.3l.7-1.1h.8l-.9,1.3.9,1.4h-.8Z"/>
        <path id="Fill-15" class="st0" d="M820.5,6.2h4.5V1.7h-4.5v4.5ZM824.3,5.3h-.6v-1.7h0v.3c-.1,0-.8,1.4-.8,1.4h-.5l-.6-1.4v-.3h-.1v1.7h-.6v-2.8h.8l.7,1.6v.3h.1v-.3c.1,0,.9-1.6.9-1.6h.8v2.8h0Z"/>
      </g>
    </g>
  </g>
  <g id="g4158">
    <polygon id="polygon9" class="st1" points="898 18.1 893.8 18.1 896.4 2 900.6 2 898 18.1"/>
    <path id="path11" class="st1" d="M913.1,2.4c-1.2-.5-2.5-.7-3.7-.7-4.1,0-7,2.2-7,5.3,0,2.3,2.1,3.6,3.7,4.4,1.6.8,2.2,1.3,2.2,2,0,1.1-1.3,1.6-2.5,1.6-1.4,0-2.7-.3-3.9-.9l-.5-.3-.6,3.6c1.5.6,3.1.9,4.7.9,4.4,0,7.2-2.2,7.3-5.5,0-1.8-1.1-3.2-3.5-4.4-1.5-.7-2.4-1.2-2.4-2,0-.7.8-1.4,2.4-1.4,1.1,0,2.1.2,3.1.6l.4.2.5-3.4h0Z"/>
    <path id="path13" class="st1" d="M918.6,12.4c.3-.9,1.7-4.5,1.7-4.5,0,0,.3-.9.5-1.5l.3,1.4s.8,3.9,1,4.7h-3.5ZM923.8,2h-3.2c-1,0-1.7.3-2.2,1.3l-6.2,14.8h4.4l.9-2.4h5.4c.1.6.5,2.4.5,2.4h3.9l-3.4-16.1h0Z"/>
    <path id="path15" class="st1" d="M890.4,2l-4.1,11-.4-2.2c-.8-2.6-3.1-5.4-5.8-6.8l3.7,14.1h4.4l6.6-16.1h-4.4Z"/>
    <path id="path17" class="st1" d="M882.5,2h-6.7v.3c5.2,1.3,8.6,4.6,10,8.4l-1.5-7.4c-.2-1-1-1.3-1.9-1.4h0Z"/>
  </g>
  <path class="st1" d="M106.1.2h0c0-.1,0-.2-.2-.2s-.2,0-.2.2v19.6h0c0,.1,0,.2.2.2s.2,0,.2-.2V1c0-.3,0-.5,0-.8Z"/>
  <path class="st1" d="M182.8.2h0c0-.1,0-.2-.2-.2,0,0-.2,0-.2.2v19.6h0c0,.1,0,.2.2.2,0,0,.2,0,.2-.2V.2Z"/>
  <path class="st1" d="M298,.2h0c0-.1,0-.2-.2-.2s-.2,0-.2.2v19.6h0c0,.1,0,.2.2.2s.2,0,.2-.2V.2Z"/>
  <path class="st1" d="M378.7.2h0c0-.1,0-.2-.2-.2s-.2,0-.2.2v19.6h0c0,.1,0,.2.2.2s.2,0,.2-.2V.2Z"/>
  <path class="st1" d="M454.4.2h0c0-.1,0-.2-.2-.2,0,0-.2,0-.2.2v19.6h0c0,.1,0,.2.2.2,0,0,.2,0,.2-.2V.2Z"/>
  <path class="st1" d="M539.6.2h0c0-.1,0-.2-.2-.2s-.2,0-.2.2v19.6h0c0,.1,0,.2.2.2s.2,0,.2-.2V1c0-.3,0-.5,0-.8Z"/>
  <path class="st1" d="M585.3.2h0c0-.1,0-.2-.2-.2s-.2,0-.2.2v19.6h0c0,.1,0,.2.2.2s.2,0,.2-.2V.2Z"/>
  <path class="st1" d="M667.6.2h0c0-.1,0-.2-.2-.2s-.2,0-.2.2v19.6h0c0,.1,0,.2.2.2s.2,0,.2-.2V.2Z"/>
  <path class="st1" d="M787.2.2h0c0-.1,0-.2-.2-.2,0,0-.2,0-.2.2v19.6h0c0,.1,0,.2.2.2,0,0,.2,0,.2-.2V.2Z"/>
  <path class="st1" d="M866.1.2h0c0-.1,0-.2-.2-.2,0,0-.2,0-.2.2v19.6h0c0,.1,0,.2.2.2,0,0,.2,0,.2-.2V.2Z"/>
  <path class="st1" d="M937.1.2h0c0-.1,0-.2-.2-.2,0,0-.2,0-.2.2v19.6h0c0,.1,0,.2.2.2,0,0,.2,0,.2-.2V.2Z"/>
  <path class="st1" d="M978.3.2h0c0-.1,0-.2-.2-.2s-.2,0-.2.2v19.6h0c0,.1,0,.2.2.2s.2,0,.2-.2V.2Z"/>
  <path class="st0" d="M1021,4.3c-.5,0-1,.3-1.3.8l-2.4,5.4-.9-5.4c0-.5-.5-.8-1-.8h-3l2.6,9c0,.2,0,.4,0,.6-.2.8-.8,1.3-1.6,1.4h-1.7c-.4,0-.7.3-.8.9l-.4,2.2h2.9c1.5,0,3.3-.8,4.5-2.9l5.9-11.1h-3Z"/>
  <path class="st0" d="M992,1.7c.9,0,1.3.4,1.2,1.2l-.3,1.4h2l-.4,2.5h-2l-.6,3.1c-.2,1.1.9,1.2,1.5,1.2h.3l-.5,2.8c-.2,0-.4,0-.6,0-1.5,0-4.5-.4-3.9-3.7l.6-3.6h-1.5l.4-2.5h1.5l.5-2.7h1.8Z"/>
  <path class="st0" d="M1009,4.5l-.5,3c1,.5,1.4,1.7.9,2.7-.3.6-.9,1-1.5,1.1l-.5,2.9h.3c2.7,0,4.9-2.2,4.9-4.9,0-2.2-1.4-4.1-3.5-4.7"/>
  <path class="st0" d="M1006.7,10.9c-1-.5-1.4-1.7-.9-2.7.3-.6.9-1,1.5-1.1l.5-3h-.3c-2.7,0-4.9,2.2-4.9,4.9s1.4,4.1,3.5,4.7l.5-2.9Z"/>
  <path class="st0" d="M996.1,4.3h1.7c.9,0,1.3.4,1.1,1.2l-.2,1.1c.6-1.3,2.1-2.4,3.5-2.4s.3,0,.4,0l-.6,3.2c-.2,0-.4,0-.6,0-1.2,0-2.3.6-2.8,1.7-.2.4-.3.9-.4,1.3l-.6,3.6h-3.2l1.7-9.7Z"/>
  <path class="st0" d="M1023.2,14.2c0,0,0,0,0-.1,0,0,0,0-.2,0h-.2v.4h.2c0,0,0,0,.2,0,0,0,0,0,0-.1M1023.4,15h-.2l-.3-.5h-.2v.5h-.2v-1.1h.4c0,0,.2,0,.3,0s0,.2,0,.2c0,.2,0,.3-.2.3l.3.5ZM1023.8,14.4c0,.2,0,.5-.3.6-.3.3-.9.3-1.2,0h0c-.3-.3-.3-.9,0-1.3.3-.3.9-.3,1.2,0h0c.2.2.3.4.3.6M1024,14.4c0,.6-.5,1-1,1s-.5,0-.7-.3c-.4-.4-.4-1.1,0-1.5.2-.2.5-.3.7-.3.6,0,1,.5,1,1h0"/>
  <path class="st1" d="M776.6,10.3h0c0,0-.2,0-.2,0v.4h0v-.4h-.2c0,0,.4,0,.4,0ZM777.2,10.3v.5h0v-.4.4h-.2v-.3c-.1,0-.1.4-.1.4h0v-.5h.1v.4c.1,0,.3-.4.3-.4h0ZM717.2,4.8c1.2,0,2.2.8,2.3,2v3.7h-1.2v-3.1c0-.9-.5-1.5-1.3-1.5-.8,0-1.4.6-1.5,1.3v3.3h-1.2v-3.1c0-.9-.5-1.5-1.3-1.5-.8,0-1.4.6-1.5,1.3v3.3h-1.2v-5.7h1.2v.7c.4-.6,1-.9,1.7-.8.8,0,1.5.3,1.9,1,.5-.7,1.3-1.1,2.1-1h0ZM726.6,4.9v5.6h-1.2v-.7c-.4.5-1.1.8-1.8.8-1.6,0-2.8-1.2-2.8-2.9s1.2-2.9,2.8-2.9c.7,0,1.3.3,1.8.8v-.7h1.2ZM723.8,5.9c-1,0-1.7.8-1.7,1.8s.6,1.8,1.7,1.8,1.7-.8,1.7-1.8-.7-1.8-1.7-1.8ZM732.7,5.4l-.5,1c-.5-.3-1.1-.5-1.7-.5s-1.1.3-1.1.7.4.5.9.6h.6c1.2.3,1.9.8,1.9,1.8s-.9,1.8-2.5,1.8-1.7-.2-2.4-.7l.6-.9c.5.4,1.2.6,1.8.6.8,0,1.3-.3,1.3-.7s-.3-.5-1-.6h-.6c-1.2-.2-1.9-.8-1.9-1.7s.9-1.8,2.3-1.8,1.6.2,2.3.6h0ZM738,4.9v1.1h-2.1v2.4c0,.8.4,1,.9,1,.4,0,.8-.2,1.1-.4l.5,1c-.5.4-1.1.5-1.7.5-1.3,0-2-.7-2-2.2v-2.5h-1.1v-1.1h1.1v-1.7h1.2v1.7h2.1ZM741.8,4.8c1.6,0,2.6,1.2,2.6,2.9s0,.3,0,.5h-4.1c0,.8.8,1.5,1.7,1.4.6,0,1.2-.2,1.6-.6l.6.9c-.6.5-1.5.8-2.3.8-1.7,0-2.9-1.2-2.9-2.9s1.2-3,2.8-3h0ZM741.7,5.9c-.9,0-1.4.6-1.5,1.4h2.9c0-.9-.6-1.4-1.4-1.4ZM748.7,4.8c.3,0,.6,0,.9.2l-.3,1.2c-.3-.1-.6-.2-.9-.2-.8,0-1.3.5-1.3,1.5v3.1h-1.2v-5.6h1.2v.6c.4-.5,1-.8,1.7-.8h0ZM753.7,4.8c1.6,0,2.8,1.2,2.8,2.9s-1.2,2.9-2.8,2.9c-.7,0-1.3-.3-1.8-.8v3h-1.2v-7.9h1.2v.7c.4-.5,1.1-.8,1.8-.8h0ZM753.6,5.9c-1,0-1.7.8-1.7,1.8s.7,1.8,1.7,1.8,1.7-.8,1.7-1.8-.6-1.8-1.7-1.8ZM763.3,4.9v5.6h-1.2v-.7c-.4.5-1.1.8-1.8.8-1.6,0-2.8-1.2-2.8-2.9s1.2-2.9,2.8-2.9c.7,0,1.3.3,1.8.8v-.7h1.2ZM760.4,5.9c-1,0-1.7.8-1.7,1.8s.6,1.8,1.7,1.8,1.7-.8,1.7-1.8-.7-1.8-1.7-1.8ZM769.4,5.4l-.6,1c-.5-.3-1.1-.5-1.7-.5s-1.1.3-1.1.7.4.5.9.6h.6c1.2.3,1.9.8,1.9,1.8s-.9,1.8-2.5,1.8-1.7-.2-2.4-.7l.6-.9c.5.4,1.2.6,1.8.6.8,0,1.3-.3,1.3-.7s-.3-.5-1-.6h-.6c-1.2-.2-1.9-.8-1.9-1.7s.9-1.8,2.3-1.8,1.7.2,2.4.6h0ZM775.2,5.4l-.5,1c-.5-.3-1.1-.5-1.7-.5s-1.1.3-1.1.7.4.5.9.6h.6c1.2.3,1.9.8,1.9,1.8s-.9,1.8-2.5,1.8-1.7-.2-2.4-.7l.6-.9c.5.4,1.2.6,1.8.6.8,0,1.3-.3,1.3-.7s-.3-.5-1-.6h-.6c-1.2-.2-1.9-.8-1.9-1.7s.9-1.8,2.3-1.8,1.6.2,2.3.6h0ZM711.8,13.5c.8,0,1.4.7,1.3,1.5,0,.7-.6,1.3-1.3,1.3-.3,0-.6-.1-.8-.4v.3h-.6v-4h.6v1.6c.2-.2.5-.4.8-.4ZM711.7,14.1c-.5,0-.9.3-.9.8,0,.5.3.9.8.9s.9-.3.9-.8h0c0-.5-.3-.8-.7-.9,0,0,0,0,0,0h0ZM716.1,13.6l-2.1,3.7h-.6l.9-1.7-1.2-2.1h.6l.8,1.5.8-1.5h.7ZM721,13.5c.6,0,1,.4,1.1.9h0v1.8h-.6v-1.5c0-.4-.2-.7-.6-.7s-.7.3-.7.6h0v1.5h-.6v-1.5c0-.4-.2-.7-.6-.7s-.7.3-.7.7h0v1.5h-.6v-2.6h.6v.3c.2-.3.5-.4.8-.4s.7.2.9.5c.2-.3.6-.5.9-.5h0ZM725.4,13.6v2.6h-.6v-.3c-.2.3-.5.4-.8.4-.8,0-1.4-.7-1.3-1.5,0-.7.6-1.3,1.3-1.3.3,0,.6.1.8.4v-.3h.6ZM724.1,14.1c-.5,0-.9.3-.9.8,0,.5.3.9.8.9s.9-.3.9-.8h0c0-.5-.3-.8-.7-.9t0,0h0ZM728.2,13.8l-.3.4c-.2-.1-.5-.2-.8-.2s-.5.1-.5.3.2.2.4.3h.3c.6,0,.9.4.9.8s-.4.9-1.2.9-.8,0-1.1-.3l.3-.4c.2.2.6.3.9.3s.6-.1.6-.3-.1-.2-.5-.3h-.3c-.6,0-.9-.4-.9-.8s.4-.8,1.1-.8c.4,0,.7.1,1.1.3h0ZM730.6,13.6v.5h-1v1.1c0,.4.2.5.4.5s.4,0,.5-.2l.2.5c-.2.2-.5.3-.8.3-.6,0-.9-.3-.9-1v-1.2h-.5v-.5h.5v-.8h.6v.8h1ZM732.3,13.5c.7,0,1.2.6,1.2,1.4v.2h-1.9c0,.4.4.7.8.7.3,0,.5,0,.8-.3l.3.4c-.3.3-.7.4-1.1.4-.7,0-1.3-.5-1.3-1.3h0c0-.8.5-1.5,1.2-1.5,0,0,0,0,0,0h0ZM732.3,14c-.4,0-.7.3-.7.6h1.4c0-.3-.3-.6-.7-.6h0ZM735.5,13.5c.2,0,.3,0,.4,0v.6c-.3,0-.4,0-.6,0-.3,0-.6.3-.6.6h0v1.5h-.6v-2.6h.6v.3c.2-.3.5-.4.8-.4ZM737.5,13.5c.4,0,.7.1,1,.4l-.4.4c-.2-.2-.4-.3-.6-.3-.5,0-.8.5-.8.9,0,.4.4.7.8.8.2,0,.5,0,.6-.3l.4.4c-.3.3-.6.4-1,.4-.8,0-1.4-.6-1.4-1.4s.6-1.5,1.4-1.5h0ZM741.5,13.6v2.6h-.6v-.3c-.2.3-.5.4-.8.4-.8,0-1.4-.7-1.3-1.5,0-.7.6-1.3,1.3-1.3.3,0,.6.1.8.4v-.3h.6ZM740.2,14.1c-.5,0-.9.3-.9.8,0,.5.3.9.8.9s.9-.3.9-.8h0c0-.5-.3-.8-.7-.9t0,0h0ZM743.6,13.5c.2,0,.3,0,.4,0v.6c-.3,0-.4,0-.6,0-.3,0-.6.3-.6.6h0v1.5h-.6v-2.6h.6v.3c.2-.3.5-.4.8-.4h0ZM745.7,13.5c.3,0,.6.1.8.4v-1.6h.6v4h-.6v-.3c-.2.3-.5.4-.8.4-.8,0-1.4-.7-1.3-1.5,0-.7.6-1.3,1.3-1.3h0ZM745.7,14.1c-.5,0-.9.3-.9.8,0,.5.3.9.8.9s.9-.3.9-.8h0c0-.5-.3-.8-.7-.9,0,0,0,0,0,0h0Z"/>
  <polygon class="st1" points="704.6 15.8 704.5 16.1 704.4 15.8 704.2 15.8 704.2 16.3 704.3 16.3 704.3 15.9 704.5 16.2 704.5 16.2 704.7 15.8 704.7 16.3 704.8 16.3 704.8 15.8 704.6 15.8"/>
  <polygon class="st1" points="703.7 15.8 703.9 15.8 703.9 16.3 704 16.3 704 15.8 704.1 15.8 704.1 15.8 703.7 15.8 703.7 15.8"/>
  <path class="st1" d="M687.3,10c0-2.6,1.1-5,3.1-6.7-3.7-2.7-8.9-2-11.6,1.7-2.7,3.7-2,8.9,1.7,11.6,1.4,1.1,3.2,1.6,5,1.6s3.5-.6,5-1.6c-2-1.7-3.2-4.1-3.2-6.7Z"/>
  <path class="st1" d="M696,1.7c-1.8,0-3.5.6-5,1.6,1.4,1.2,2.4,2.7,2.9,4.5h0c0,.2,0,.3,0,.4s0,.1,0,.1c0,0,0,.1,0,.2s0,.2,0,.3h0c0,.4,0,.8,0,1.1,0,2.6-1.2,5-3.1,6.7,3.7,2.7,8.9,2,11.6-1.7,2.7-3.7,2-8.9-1.7-11.6-1.4-1-3.1-1.6-4.9-1.6Z"/>
  <path class="st1" d="M693.8,10c0-.3,0-.7,0-1h0c0-.2,0-.3,0-.4s0-.1,0-.2c0,0,0,0,0-.1,0,0,0-.2,0-.3h0c-.4-1.7-1.4-3.3-2.8-4.4h0c-1.8,1.5-2.9,3.7-3.1,6h0v.4h0v.4h0c0,.2,0,.3,0,.4s0,.1,0,.2h0c0,.2,0,.4,0,.5.3,2,1.4,3.7,2.9,5,1.9-1.6,3-4,3-6.5Z"/>
  <path class="st1" d="M967.7,18.1h0s0,0,0,0h0s0,0,0,0h0ZM967.7,18h0s0,0,0,0h0,0c0,0,0,0,0,0h0c0,0,0,0,0,0h0c0,0,0,0,0,0v-.2h0ZM967.7,18.3h0s0,0,0,0h0c0-.1,0-.2,0-.2h0s0,0,0,0h0c0,0,0,.1,0,.2h0s0,0,0,0M967.7,18s0,0,.1,0c0,0,0,0,0,0h0c0,.2,0,.2,0,.2,0,0,0,0-.1,0h0s0,0,0,0c0,0,0,0,0,0h0c0-.2,0-.2,0-.2t0,0c0,0,0,0,0,0M951.2,17.4c0-.3.3-.5.6-.5.3,0,.5.3.5.6,0,.3-.3.5-.5.5s-.5-.2-.5-.5h0M952.6,17.4v-.9h-.4v.2c-.1-.2-.3-.3-.6-.3-.5,0-.9.4-.9.9s.4.9.9.9.4,0,.6-.3v.2h.4v-.8ZM965.6,17.4c0-.3.2-.5.5-.5s.5.2.5.5h0c0,.3-.2.5-.5.5s-.5-.2-.5-.5h0M967.1,17.4v-1.6h-.4v.9c-.1-.2-.3-.3-.6-.3-.5,0-.9.4-.9.9s.4.9.9.9.4,0,.6-.3v.2h.4v-.8ZM957.4,16.8c.2,0,.4.2.5.4h-.9c0-.3.2-.4.5-.4M957.4,16.4c-.5,0-.9.4-.9.8h0c0,.6.3,1,.8,1h0c.3,0,.5,0,.7-.3l-.2-.3c-.1.1-.3.2-.5.2-.3,0-.5-.2-.5-.4h1.3c0-.6-.3-1-.8-1.1,0,0,0,0,0,0M962,17.4c0-.3.3-.5.6-.5s.5.3.5.6c0,.3-.3.5-.5.5s-.5-.2-.5-.5c0,0,0,0,0,0M963.5,17.4v-.9h-.4v.2c-.1-.2-.3-.3-.6-.3-.5,0-.9.4-.9.9s.4.9.9.9.4,0,.6-.3v.2h.4v-.8ZM959.9,17.4c0,.5.4.9.9.9h0c.2,0,.5,0,.6-.2l-.2-.3c-.1,0-.3.2-.5.2-.3,0-.5-.3-.5-.6,0-.3.2-.5.5-.5.2,0,.3,0,.5.2l.2-.3c-.2-.1-.4-.2-.6-.2-.5,0-.9.3-.9.8,0,0,0,0,0,0M964.8,16.4c-.2,0-.4,0-.5.3v-.2h-.4v1.8h.4v-1c0-.3.1-.5.4-.5s.2,0,.2,0v-.4s0,0-.2,0M954.5,16.6c-.2-.1-.5-.2-.7-.2-.5,0-.7.2-.7.6s.2.5.6.5h.2c.2,0,.3,0,.3.2s-.1.2-.4.2-.4,0-.6-.2l-.2.3c.2.2.5.2.8.2.5,0,.8-.2.8-.6s-.2-.5-.6-.5h-.2c-.2,0-.3,0-.3-.2s.1-.2.3-.2.4,0,.6.2l.2-.3ZM959.5,16.4c-.2,0-.4,0-.5.3v-.2h-.4v1.8h.4v-1c0-.3.1-.5.4-.5s.2,0,.2,0v-.4s0,0-.2,0M956.2,16.5h-.6v-.6h-.4v.5h-.4v.4h.4v.8c0,.4.2.7.6.7s.3,0,.5-.1v-.3c-.2,0-.3,0-.4,0-.2,0-.3,0-.3-.3v-.8h.6v-.3ZM950.4,18.2v-1.1c0-.4-.3-.7-.6-.7h0c-.3,0-.5,0-.6.3-.1-.2-.3-.3-.6-.3s-.4,0-.5.3v-.2h-.4v1.8h.4v-1c0-.2.1-.4.4-.5h0c.3,0,.4.2.4.5v1h.4v-1c0-.2.1-.4.4-.5h0c.3,0,.4.2.4.5v1h.4Z"/>
  <polygon class="st1" points="968.2 12.7 968.1 13 968 12.7 967.9 12.7 967.9 13.1 968 13.1 968 12.8 968.1 13.1 968.2 13.1 968.3 12.8 968.3 13.1 968.3 13.1 968.3 12.7 968.2 12.7"/>
  <polygon class="st1" points="967.5 12.8 967.7 12.8 967.7 13.1 967.7 13.1 967.7 12.8 967.9 12.8 967.9 12.7 967.5 12.7 967.5 12.8"/>
  <path class="st1" d="M954.6,8.2c0-2,.9-4,2.5-5.3-2.9-2.1-7-1.5-9.1,1.4-2.1,2.9-1.5,7,1.4,9.1,2.3,1.7,5.5,1.7,7.7,0-1.6-1.3-2.5-3.2-2.5-5.2Z"/>
  <path class="st1" d="M961.4,1.7c-1.4,0-2.8.4-3.9,1.3,1.1.9,1.9,2.1,2.2,3.5h0c0,.1,0,.2,0,.3,0,0,0,0,0,0,0,0,0,0,0,.2s0,.2,0,.3h0c0,.3,0,.6,0,.9,0,2-.9,4-2.4,5.3,2.9,2.1,7,1.5,9.1-1.4,2.1-2.9,1.5-7-1.4-9.1-1.2-.8-2.5-1.3-3.9-1.3Z"/>
  <path class="st1" d="M959.7,8.2c0-.3,0-.5,0-.8h0c0-.2,0-.2,0-.3s0,0,0-.2,0,0,0,0c0,0,0-.2,0-.3h0c-.4-1.4-1.1-2.6-2.2-3.5h0c-1.4,1.2-2.3,2.9-2.4,4.7h0v.3h0v.3h0v.3c0,0,0,0,0,.2h0c0,.2,0,.3,0,.4-.6,1.5.2,3.2,1.7,3.8,1.5.6,3.2-.2,3.8-1.7.4-1.1,0-2.3-.8-3.1h0Z"/>
</svg>